# xmcd
#
# Track frame offsets: 
#        150
#        16867
#        31337
#        40753
#        54130
#        68313
#        86330
#        101990
#        117126
#        131295
#        144790
#        159113
#        173107
#        187953
#        202281
#        217504
#        238189
#        251384
#        263447
#        278300
#
# Disc length: 3908 seconds
#
# Revision: 1
# Processed by: cddbd v1.5.2PL0 Copyright (c) Steve Scherf et al.
# Submitted via: ExactAudioCopy v1.3
#
DISCID=ec0f4214
DTITLE=Various Artist - The Best Collection of Country and Folk Songs - Vol.2
DYEAR=2002
DGENRE=Pop
TTITLE0=Little Fox - Child
TTITLE1=Julie Roger - Donna Donna
TTITLE2=The Beatles - Yesterday
TTITLE3=The Carpenters - Top of the World
TTITLE4=Paul Simon and Garfunkel - Scarborough Fair
TTITLE5=Lobo - I Love You To Love Me
TTITLE6=Terry Jack - Seasons In the Sun
TTITLE7=The Bells - Stay a While
TTITLE8=The Beegees - I Started a Joke
TTITLE9=Scott Makenzine - San Francisco
TTITLE10=Olivia Newton John - If You Love Me
TTITLE11=Neil Diamond - Heart of Gold
TTITLE12=Elvis Presley - It's Now Or Never
TTITLE13=John Denver - Take Me Home Country Road
TTITLE14=Tom Jones - Deliah
TTITLE15=Frank Sinatra - My Way
TTITLE16=Dawn - Knock Three Times
TTITLE17=Paul Anka - Put Your Head On My Shoulder
TTITLE18=Paul Anka - I Don't Like To Sleep Alone
TTITLE19=Glen Campell - Rhinestone of Cowboy
EXTD=
EXTT0=
EXTT1=
EXTT2=
EXTT3=
EXTT4=
EXTT5=
EXTT6=
EXTT7=
EXTT8=
EXTT9=
EXTT10=
EXTT11=
EXTT12=
EXTT13=
EXTT14=
EXTT15=
EXTT16=
EXTT17=
EXTT18=
EXTT19=
PLAYORDER=
